<?xml version="1.0" encoding="utf-8"?>
<!-- Generator: Adobe Illustrator 25.0.0, SVG Export Plug-In . SVG Version: 6.00 Build 0)  -->
<svg version="1.1" id="Layer_1" xmlns="http://www.w3.org/2000/svg" xmlns:xlink="http://www.w3.org/1999/xlink" x="0px" y="0px"
	 viewBox="0 0 55 55" style="enable-background:new 0 0 55 55;" xml:space="preserve">
<style type="text/css">
	.st0{fill:#231F20;}
</style>
<g>
	<path class="st0" d="M7.8,31.48c0.09-1.4-0.56-2.6-2.65-3.49l-1.59-0.67c-2.06-0.89-2.81-2.28-2.71-3.87
		c0.19-2.51,2.18-3.71,4.68-3.52c1.72,0.13,2.78,0.57,3.71,1.24l-0.16,2.13H8.89c-0.66-2.06-1.9-2.7-3.4-2.79
		c-1.59-0.1-2.87,0.92-2.96,2.32c-0.09,1.21,0.31,2.16,1.97,2.89l1.25,0.54c1.65,0.7,3.93,1.74,3.74,4.57
		c-0.19,2.6-2.09,4.25-5.02,4.06C2.62,34.75,1.12,34.24,0,33.32l0.16-2.41h0.19c0.94,2.98,2.53,3.2,3.93,3.3
		C6.55,34.33,7.71,33.1,7.8,31.48z M20.12,33.1c0,0.92,0.31,1.14,1.25,1.14h0.81v0.35h-5.93v-0.38h0.72c1.03,0,1.34-0.22,1.34-1.11
		V20.88h-2.34c-1.75,0-2.59,0.76-2.87,2.44h-0.19v-3.11h12.54v3.11H25.3c-0.25-1.68-1.09-2.44-2.87-2.44h-2.34V33.1L20.12,33.1z
		 M49.45,33.1c0,0.92,0.31,1.14,1.25,1.14h0.81v0.35h-5.93v-0.38h0.72c1.03,0,1.34-0.22,1.34-1.11V20.88H45.3
		c-1.75,0-2.59,0.76-2.87,2.44h-0.19v-3.11h12.54v3.11H54.6c-0.25-1.68-1.09-2.44-2.87-2.44h-2.34V33.1L49.45,33.1z M36.32,19.81
		h0.22l2.18,13.39c0.19,0.67,0.53,1.05,1.22,1.05h0.41l-0.06,0.35h-4.93l0.06-0.38h0.37c0.69,0,1.15-0.22,1.03-0.86l-0.62-3.93
		h-5.02L29.7,31.8c-1.28,2.22-1,2.41,0.28,2.41h0.28l-0.03,0.38h-4.15l0.06-0.38h0.19c0.97,0,1.31-0.32,2.5-2.19
		C28.83,32.02,36.32,19.81,36.32,19.81z M31.92,28.24h4.12l-0.84-5.27L31.92,28.24z"/>
</g>
</svg>
